#!OML:ASF I:\Actors\actors\Patient Classification 1\Patient 1\Session 1\Subject1.ASF
:FULLY-SPECIFIED
:DEGREES
1356
root 0.472011 17.4922 9.80992 10.1598 -1.76181 -8.54808
lowerback -4.26169 1.19387 7.54899
upperback -10.7692 1.76587 1.12145
thorax -8.87765 0.302201 -3.0697
lowerneck -7.80773 -4.49658 -4.19298
upperneck 25.6259 -8.18703 9.58883
head 9.97364 -3.22695 3.17414
rclavicle -1.58034e-014 -5.96354e-015
rhumerus -51.2604 -26.2446 -63.3676
rradius 22.3948
rwrist 37.1177
rhand 9.55729 -28.5061
rfingers 7.12502
rthumb 34.7063 304.87
lclavicle -1.58034e-014 -5.96354e-015
lhumerus -53.3682 13.2144 74.0689
lradius 32.6616
lwrist 0.864808
lhand -32.4891 -20.9605
lfingers 7.12502
lthumb -5.721 8.94231
rfemur -2.46047 26.0936 26.2777
rtibia 1.24437
rfoot -11.9512 -24.314
rtoes 2.20146
lfemur 9.04474 -47.661 -15.0973
ltibia -5.21169
lfoot -24.7457 55.3928
ltoes 10.2966
1357
root 0.472903 17.4914 9.81325 10.1604 -1.72131 -8.57416
lowerback -4.67028 1.10331 7.40471
upperback -10.4792 1.59671 1.27796
thorax -8.33372 0.264159 -2.80994
lowerneck -8.01552 -4.40236 -4.25562
upperneck 25.4113 -8.02454 9.63234
head 9.92701 -3.15158 3.21157
rclavicle 6.55989e-015 1.78906e-014
rhumerus -51.3091 -27.8775 -61.48
rradius 21.0607
rwrist 39.5284
rhand 10.5465 -29.4625
rfingers 7.12502
rthumb 35.6445 304.134
lclavicle 6.55989e-015 1.78906e-014
lhumerus -52.901 14.8395 72.9854
lradius 30.9189
lwrist -1.30824
lhand -31.1216 -19.3725
lfingers 7.12502
lthumb -4.40054 10.5618
rfemur -2.44082 26.115 26.3162
rtibia 1.23997
rfoot -11.9886 -24.3654
rtoes 2.19263
lfemur 8.97889 -47.5501 -15.003
ltibia -5.20514
lfoot -24.5295 55.2887
ltoes 10.0748
1358
root 0.474409 17.4905 9.81725 10.1522 -1.67834 -8.57261
lowerback -4.69033 1.0727 7.40695
upperback -10.4754 1.5537 1.28063
thorax -8.32244 0.243247 -2.80708
lowerneck -7.97065 -4.37501 -4.30583
upperneck 25.3727 -7.99842 9.72852
head 9.90837 -3.13669 3.25782
rclavicle 1.11319e-014 3.18055e-015
rhumerus -52.2979 -29.8443 -58.8544
rradius 19.8075
rwrist 42.4901
rhand 11.6704 -30.0041
rfingers 7.12502
rthumb 36.7089 303.857
lclavicle 1.11319e-014 3.18055e-015
lhumerus -52.8773 15.9628 71.8295
lradius 29.3366
lwrist -3.40869
lhand -29.778 -17.7022
lfingers 7.12502
lthumb -3.10307 12.255
rfemur -2.39966 26.1325 26.3273
rtibia 1.22604
rfoot -12.0746 -24.4122
rtoes 2.40031
lfemur 8.94105 -47.4406 -14.9687
ltibia -5.19979
lfoot -24.2647 55.1728
ltoes 9.7734
1359
root 0.474429 17.49 9.82134 10.1191 -1.63802 -8.57496
lowerback -4.66176 1.05153 7.40652
upperback -10.4732 1.52774 1.27562
thorax -8.33925 0.229626 -2.81214
lowerneck -8.00146 -4.37876 -4.28167
upperneck 25.4267 -8.01431 9.73052
head 9.93447 -3.13925 3.25291
rclavicle 5.1684e-015 -2.90226e-014
rhumerus -53.7321 -32.2234 -55.5398
rradius 18.622
rwrist 46.2108
rhand 12.8232 -30.291
rfingers 7.12502
rthumb 37.7989 303.855
lclavicle 5.1684e-015 -2.90226e-014
lhumerus -52.8829 17.0352 70.6738
lradius 27.8082
lwrist -5.53723
lhand -28.3725 -16.1463
lfingers 7.12502
lthumb -1.74566 13.8263
rfemur -2.31448 26.225 26.372
rtibia 1.20782
rfoot -12.1454 -24.5245
rtoes 2.60973
lfemur 8.96992 -47.3499 -14.9694
ltibia -5.21622
lfoot -24.0313 55.0804
ltoes 9.56003
1360
root 0.473773 17.4896 9.82639 10.0971 -1.62006 -8.50749
lowerback -4.62999 1.04243 7.33309
upperback -10.4838 1.51654 1.23853
thorax -8.36957 0.226819 -2.81121
lowerneck -8.06892 -4.37472 -4.15332
upperneck 25.5641 -8.02615 9.65768
head 9.99009 -3.13434 3.20466
rclavicle 4.57205e-015 -7.95139e-016
rhumerus -55.5451 -34.6648 -51.8473
rradius 17.57
rwrist 50.193
rhand 13.7959 -30.6429
rfingers 7.12502
rthumb 38.717 303.757
lclavicle 4.57205e-015 -7.95139e-016
lhumerus -52.9593 17.9873 69.5664
lradius 26.4555
lwrist -7.56389
lhand -26.923 -14.6054
lfingers 7.12502
lthumb -0.34572 15.3741
rfemur -2.22885 26.3011 26.3339
rtibia 1.15519
rfoot -12.1164 -24.64
rtoes 2.50708
lfemur 9.0158 -47.3086 -15.0721
ltibia -5.23069
lfoot -23.9943 55.023
ltoes 9.56498
1361
root 0.473266 17.4894 9.83329 10.086 -1.66022 -8.40577
lowerback -4.63309 1.05042 7.19706
upperback -10.4969 1.52473 1.20535
thorax -8.38027 0.239432 -2.77118
lowerneck -8.06848 -4.38456 -4.09673
upperneck 25.593 -8.04226 9.6142
head 9.99765 -3.14024 3.17799
rclavicle 9.54166e-015 1.63003e-014
rhumerus -57.475 -36.7164 -48.2958
rradius 16.7433
rwrist 53.8263
rhand 14.5656 -31.1246
rfingers 7.12502
rthumb 39.4426 303.484
lclavicle 9.54166e-015 1.63003e-014
lhumerus -53.1145 18.6546 68.7234
lradius 25.468
lwrist -9.10896
lhand -25.4188 -12.8433
lfingers 7.12502
lthumb 1.1071 17.1336
rfemur -2.15321 26.3696 26.2383
rtibia 1.08637
rfoot -12.0966 -24.6926
rtoes 2.57499
lfemur 9.13289 -47.3578 -15.2877
ltibia -5.25052
lfoot -24.1298 55.0909
ltoes 9.63253
1362
root 0.472435 17.4895 9.8397 10.1094 -1.71379 -8.39918
lowerback -4.66362 1.06233 7.14952
upperback -10.5075 1.5381 1.20788
thorax -8.37301 0.249955 -2.74187
lowerneck -8.13432 -4.38711 -4.14975
upperneck 25.6455 -8.05714 9.67398
head 10.0357 -3.14247 3.20642
rclavicle 6.36111e-015 -2.14687e-014
rhumerus -59.1795 -38.2309 -45.3289
rradius 16.1275
rwrist 56.7752
rhand 15.2015 -31.9377
rfingers 7.12502
rthumb 40.0413 302.849
lclavicle 6.36111e-015 -2.14687e-014
lhumerus -53.2672 19.106 68.1125
lradius 24.7163
lwrist -10.2002
lhand -23.8001 -10.797
lfingers 7.12502
lthumb 2.67046 19.166
rfemur -2.13633 26.4917 26.2285
rtibia 1.05037
rfoot -12.1463 -24.7491
rtoes 2.813
lfemur 9.1867 -47.4037 -15.3398
ltibia -5.26715
lfoot -24.235 55.1881
ltoes 9.59529
1363
root 0.472159 17.4891 9.84514 10.1649 -1.74427 -8.44134
lowerback -4.71998 1.06212 7.16953
upperback -10.5153 1.53335 1.21613
thorax -8.34985 0.246966 -2.74308
lowerneck -8.20203 -4.4011 -4.19188
upperneck 25.667 -8.081 9.70968
head 10.0622 -3.15126 3.22263
rclavicle 1.17283e-014 -8.34896e-015
rhumerus -60.5344 -39.3102 -43.0485
rradius 15.6498
rwrist 58.9832
rhand 15.6238 -32.9077
rfingers 7.12502
rthumb 40.4385 302
lclavicle 1.17283e-014 -8.34896e-015
lhumerus -53.4221 19.4917 67.5518
lradius 24.0778
lwrist -11.1408
lhand -22.1622 -8.83074
lfingers 7.12502
lthumb 4.25214 21.1066
rfemur -2.1612 26.5418 26.2608
rtibia 1.0264
rfoot -12.1367 -24.7758
rtoes 2.77495
lfemur 9.16357 -47.457 -15.2806
ltibia -5.26588
lfoot -24.2878 55.2612
ltoes 9.6207
1364
root 0.472454 17.4884 9.84992 10.1964 -1.77159 -8.48509
lowerback -4.06521 1.15298 7.42477
upperback -11.0095 1.73426 1.01714
thorax -9.26702 0.271522 -3.11637
lowerneck -7.77535 -4.48733 -4.16148
upperneck 25.9255 -8.27173 9.79968
head 10.0924 -3.23492 3.24048
rclavicle 7.45443e-015 9.93923e-015
rhumerus -62.361 -39.2972 -41.341
rradius 15.469
rwrist 59.9449
rhand 15.9805 -33.578
rfingers 7.12502
rthumb 40.7738 301.434
lclavicle 7.45443e-015 9.93923e-015
lhumerus -54.2151 19.0492 66.8737
lradius 23.6232
lwrist -11.8336
lhand -20.626 -7.29721
lfingers 7.12502
lthumb 5.73547 22.6052
rfemur -2.16149 26.5057 26.3086
rtibia 1.00758
rfoot -12.0844 -24.7373
rtoes 2.56799
lfemur 9.23349 -47.6104 -15.3014
ltibia -5.27224
lfoot -24.481 55.4098
ltoes 9.9296
1365
root 0.473079 17.4882 9.85298 10.2269 -1.81391 -8.53594
lowerback -3.8086 1.21257 7.56263
upperback -11.1907 1.84602 0.935862
thorax -9.61117 0.293178 -3.29046
lowerneck -7.69887 -4.51874 -4.22173
upperneck 26.1202 -8.38002 9.98571
head 10.1696 -3.26866 3.31038
rclavicle -7.35503e-015 -1.59028e-014
rhumerus -63.2062 -39.2525 -40.5047
rradius 15.3131
rwrist 60.5301
rhand 16.4071 -33.9712
rfingers 7.12502
rthumb 41.1745 301.168
lclavicle -7.35503e-015 -1.59028e-014
lhumerus -54.5567 19.0831 66.3211
lradius 23.1196
lwrist -12.5085
lhand -19.3213 -6.28127
lfingers 7.12502
lthumb 6.99497 23.5831
rfemur -2.18938 26.5006 26.3505
rtibia 1.00874
rfoot -12.0512 -24.6883
rtoes 2.33576
lfemur 9.30349 -47.7536 -15.3124
ltibia -5.29156
lfoot -24.6625 55.5874
ltoes 10.1444
1366
root 0.474521 17.4886 9.85588 10.246 -1.85328 -8.54126
lowerback -4.00822 1.18822 7.50543
upperback -11.0288 1.78767 0.995332
thorax -9.31605 0.287424 -3.18756
lowerneck -7.79521 -4.43944 -4.16412
upperneck 25.9201 -8.22638 9.89499
head 10.095 -3.20345 3.28016
rclavicle -4.07509e-015 1.55052e-014
rhumerus -63.1833 -39.4711 -40.1939
rradius 15.1089
rwrist 61.1345
rhand 16.914 -34.1308
rfingers 7.12502
rthumb 41.6502 301.163
lclavicle -4.07509e-015 1.55052e-014
lhumerus -54.463 19.7796 65.7826
lradius 22.4992
lwrist -13.3227
lhand -18.2985 -5.77055
lfingers 7.12502
lthumb 7.98228 24.0587
rfemur -2.20038 26.4914 26.3374
rtibia 0.991316
rfoot -12.0119 -24.638
rtoes 2.20275
lfemur 9.30285 -47.725 -15.3244
ltibia -5.28141
lfoot -24.5727 55.6127
ltoes 10.0353
